<?xml version="1.0" standalone="no"?>
<!DOCTYPE svg PUBLIC "-//W3C//DTD SVG 20010904//EN"
 "http://www.w3.org/TR/2001/REC-SVG-20010904/DTD/svg10.dtd">
<svg version="1.0" xmlns="http://www.w3.org/2000/svg"
 width="1148.000000pt" height="1152.000000pt" viewBox="0 0 1148.000000 1152.000000"
 preserveAspectRatio="xMidYMid meet">
<metadata>
Created by potrace 1.16, written by Peter Selinger 2001-2019
</metadata>
<g transform="translate(0.000000,1152.000000) scale(0.100000,-0.100000)"
fill="#000000" stroke="none">
<path d="M5736 10693 c15 -27 120 -205 234 -398 114 -192 364 -615 555 -940
191 -324 360 -610 375 -635 15 -25 87 -146 160 -270 73 -124 155 -263 183
-310 28 -47 72 -121 97 -165 26 -44 113 -192 195 -330 81 -137 186 -315 233
-395 46 -80 97 -165 112 -190 131 -211 520 -887 538 -930 64 -164 66 -323 7
-493 -36 -104 -81 -173 -175 -267 -68 -69 -102 -94 -170 -128 -155 -76 -76
-72 -1431 -75 l-1214 -2 -75 -23 c-318 -97 -521 -364 -522 -686 -2 -274 152
-521 399 -641 143 -70 -42 -65 2458 -65 1243 0 2289 3 2325 6 136 12 249 53
355 128 238 171 349 468 279 751 -26 105 -29 110 -457 835 -124 210 -285 482
-522 885 -120 204 -270 458 -333 565 -63 107 -160 272 -215 365 -55 94 -150
256 -212 360 -62 105 -158 269 -215 365 -57 96 -131 222 -165 280 -34 58 -131
222 -215 365 -84 143 -210 357 -280 475 -70 118 -218 370 -330 560 -331 563
-461 782 -492 832 -65 105 -191 188 -314 208 -33 6 -310 10 -627 10 l-569 0
28 -47z"/>
<path d="M4628 10709 c-162 -17 -296 -85 -418 -208 -74 -76 -97 -108 -179
-256 -88 -159 -181 -325 -662 -1187 -106 -189 -287 -514 -404 -723 -186 -333
-353 -632 -978 -1750 -77 -137 -215 -385 -307 -550 -92 -165 -220 -394 -285
-510 -65 -115 -150 -268 -190 -340 -40 -71 -136 -244 -213 -383 -78 -139 -149
-278 -159 -310 -23 -78 -21 -200 5 -273 11 -31 105 -202 210 -380 104 -178
229 -391 277 -474 48 -82 94 -161 102 -174 l15 -23 25 43 c14 24 92 163 173
309 81 146 234 420 340 610 106 190 248 444 315 565 67 121 209 375 315 565
106 190 227 406 268 480 41 74 116 209 167 300 51 91 169 302 263 470 582
1047 709 1271 748 1321 135 176 387 286 606 264 179 -17 314 -80 438 -205 86
-86 102 -110 315 -480 17 -30 166 -284 330 -565 164 -280 368 -629 453 -775
174 -299 211 -352 297 -421 134 -109 283 -162 455 -162 126 -1 203 17 315 73
146 72 246 173 320 325 82 168 96 349 41 520 -31 95 -6 51 -391 705 -170 289
-329 561 -355 605 -26 44 -102 175 -170 290 -68 116 -196 334 -285 485 -258
440 -867 1477 -998 1700 -144 244 -182 297 -262 362 -147 120 -344 178 -537
157z"/>
<path d="M4462 7240 c-120 -32 -226 -93 -317 -185 -73 -73 -93 -103 -236 -355
-204 -358 -658 -1157 -1349 -2370 -276 -485 -534 -938 -662 -1165 -118 -208
-139 -269 -145 -420 -6 -144 9 -222 67 -340 91 -187 248 -320 445 -377 72 -20
102 -23 285 -23 244 0 1499 14 1720 20 85 2 412 7 725 10 314 3 689 7 835 10
146 3 438 7 650 10 212 3 545 7 740 10 195 3 589 7 875 10 752 8 1024 15 1075
27 77 18 152 61 210 118 47 46 100 133 343 558 158 277 287 506 287 509 0 5
-472 1 -1240 -12 -162 -3 -488 -7 -725 -10 -435 -5 -871 -11 -1445 -20 -1987
-30 -1880 -29 -1965 -12 -49 10 -117 35 -175 63 -78 39 -110 62 -181 133 -69
70 -94 104 -131 178 -63 125 -82 216 -75 357 6 148 32 215 184 481 65 116 318
557 560 980 242 424 453 794 467 823 64 127 85 323 50 468 -63 262 -271 470
-531 528 -98 22 -248 20 -341 -4z"/>
</g>
</svg>
